<mxfile host="app.diagrams.net" agent="Mozilla/5.0 (iPhone; CPU iPhone OS 18_3_2 like Mac OS X) AppleWebKit/605.1.15 (KHTML, like Gecko) GSA/359.2.735510536 Mobile/15E148 Safari/604.1" version="26.1.1">
  <diagram name="Page-1" id="GZ_DryNdbF2sQ-i9GLSI">
    <mxGraphModel>
      <root>
        <mxCell id="0" />
        <mxCell id="1" parent="0" />
      </root>
    </mxGraphModel>
  </diagram>
</mxfile>
